<?xml version="1.0" encoding="UTF-8"?>
<svg width="512pt" height="512pt" viewBox="-67 0 512 512" xmlns="http://www.w3.org/2000/svg">
<path d="m232.34 358.28c0 13.234-7.8672 23.957-17.578 23.957h-51.469c-9.707 0-17.574-10.723-17.574-23.957v-88.992c0-13.23 7.8672-23.953 17.574-23.953h51.469c9.707 0 17.578 10.723 17.578 23.953z" fill="#ffcdcd"/>
<path d="m369.07 468.14-23.816-99.598c-7.4805-24.602-32.605-55.73-72.824-55.73h-40.078l-0.058594 0.09375c-20.629 30.746-66.016 30.699-86.574-0.09375h-40.277c-40.215 0-62.539 27.176-72.82 55.73l-23.82 99.598c-4.375 18.301 9.625 35.859 28.602 35.859h303.07c18.973 0 32.977-17.559 28.602-35.859z" fill="#787ebe"/>
<path d="m369.07 468.14-23.816-99.598c-7.4805-24.602-32.605-55.73-72.824-55.73h-40.078l-0.019531 0.03125c39.469 0.65625 64.148 31.359 71.547 55.699l23.816 99.598c4.3789 18.301-9.625 35.859-28.602 35.859h41.375c18.973 0 32.977-17.559 28.602-35.859z" fill="#5a69b4"/>
<path d="m291.92 122.77c-1.3008-0.13281-2.5977 0.058594-3.8672 0.53125-5.3125-65.16-38.684-115.3-99.113-115.3-60.438 0-93.805 50.141-99.117 115.3-1.2695-0.47266-2.5664-0.66406-3.8711-0.53125-8.5352 0.86719-14.074 15.145-12.359 31.887 1.7148 16.75 10.035 29.617 18.574 28.75 0.23438-0.023438 0.46875-0.0625 0.69922-0.10547 10.508 53.926 42.758 92.949 96.074 92.949 53.312 0 85.562-39.023 96.07-92.949 0.23047 0.042969 0.46484 0.082031 0.69922 0.10547 8.5391 0.86719 16.859-12 18.574-28.75 1.7148-16.742-3.8203-31.02-12.363-31.887z" fill="#ffe1d6"/>
<path d="m291.92 122.77c-1.3008-0.13281-2.5977 0.058594-3.8672 0.53125-5.3125-65.16-38.684-115.3-99.113-115.3-6.3438 0-12.387 0.55859-18.133 1.625 105.05 30.969 100.24 225.55 0 264.99 5.7461 1.0664 11.785 1.6367 18.133 1.6367 53.312 0 85.562-39.023 96.066-92.953 0.23438 0.042969 0.46484 0.082031 0.70313 0.10547 8.5391 0.86719 16.855-12 18.574-28.746 1.7148-16.746-3.8203-31.023-12.363-31.891z" fill="#ffcdcd"/>
<path d="m250.3 482.22h-13.531c-19.562 0-35.418-15.859-35.418-35.418v-30.055c0-4.6094 3.7383-8.3438 8.3477-8.3438h67.672c4.6094 0 8.3438 3.7344 8.3438 8.3438v30.055c0 19.562-15.855 35.418-35.414 35.418z" fill="#8ed7f5"/>
<path d="m250.3 482.22h-13.531c-19.562 0-35.418-15.859-35.418-35.418v-30.055c0-4.6094 3.7383-8.3438 8.3477-8.3438h67.672c4.6094 0 8.3438 3.7344 8.3438 8.3438v30.055c0 19.562-15.855 35.418-35.414 35.418z" fill="#ffd778"/>
<path d="m285.71 436.2v-19.445c0-4.6094-3.7344-8.3477-8.3438-8.3477h-67.672c-4.6094 0-8.3477 3.7383-8.3477 8.3477v19.445c0.52344-0.082031 83.84-0.082031 84.363 0z" fill="#fec250"/>
<path d="m275.56 97.699h-173.25c-6.8242 0-11.902 6.7344-10.441 13.852l7.5195 48.059c1.0742 5.2344 5.4219 8.9688 10.445 8.9688h54.059c5.2188 0 9.6758-4.0234 10.543-9.5156l3.2617-20.074c0.74219-4.5859 4.0352-8.4336 8.5273-9.6055 0.074219-0.019531 0.14844-0.039062 0.21875-0.058593 6.5234-1.6133 13.062 2.6641 14.434 9.2422l4.3906 21.039c1.0781 5.2383 5.4219 8.9688 10.445 8.9688h54.059c5.2188 0 9.6758-4.0195 10.543-9.5117l5.7852-48.059c1.0977-6.957-3.9297-13.305-10.543-13.305z" fill="#6e7081"/>
<path d="m376.85 466.28-23.816-99.598c-0.035156-0.15625-0.078125-0.3125-0.125-0.46484-6.4336-21.168-25.605-49.164-58.477-58.414-4.2539-1.1953-8.668 1.2812-9.8672 5.5352-1.1953 4.2539 1.2812 8.6719 5.5352 9.8672 24.84 6.9883 41.691 28.82 47.43 47.438l23.762 99.355c1.5 6.2695 0.0625 12.777-3.9453 17.855-4.0859 5.1758-10.234 8.1445-16.875 8.1445h-188.11c-4.418 0-8 3.582-8 8s3.582 8 8 8h188.11c11.566 0 22.297-5.1875 29.434-14.234 7.0586-8.9453 9.5938-20.422 6.9453-31.484z"/>
<path d="m40.297 370.84c6.8906-18.883 24.438-50.031 65.148-50.031h36.191c11.312 14.539 28.703 23.105 47.336 23.125h0.066406c18.648 0 36.059-8.5625 47.398-23.125h20.828c4.418 0 8-3.582 8-8s-3.582-8-8-8h-16.926v-34.477c6.6445-4.0664 12.812-8.9922 18.422-14.762 15.512-15.953 26.812-38.32 32.875-64.957 10.395-3.418 18.754-17.098 20.605-35.145 0.95703-9.332-0.050782-18.426-2.8359-25.605-3.0078-7.7617-8.0625-12.938-14.102-14.582-8.1602-71.324-48.445-115.29-106.36-115.29-57.922 0-98.203 43.957-106.37 115.28-6.0938 1.6172-11.043 6.7031-14.102 14.59-2.7812 7.1836-3.7891 16.273-2.832 25.605 1.8477 18.043 10.203 31.719 20.602 35.141 6.0625 26.641 17.367 49.008 32.879 64.961 5.6562 5.8203 11.887 10.789 18.602 14.875v34.367h-32.273c-20.531 0-38.328 6.4336-52.891 19.125-11.793 10.273-21.289 24.762-27.457 41.891-0.10156 0.28125-0.1875 0.5625-0.25391 0.85156l-23.82 99.598c-2.6445 11.062-0.11328 22.539 6.9492 31.488 7.1367 9.043 17.863 14.23 29.434 14.23h79.961c4.418 0 8-3.582 8-8s-3.582-8-8-8h-79.961c-6.6406 0-12.789-2.9688-16.875-8.1445-4.0039-5.0781-5.4453-11.586-3.9453-17.852zm84.66-324.63c16.055-20.051 37.582-30.215 63.984-30.215 26.398 0 47.926 10.164 63.98 30.215 9.3633 11.691 16.52 26.422 21.238 43.484h-102.62c-4.418 0-8 3.582-8 8s3.582 8 8 8h104.03c2.2266 0 2.8047 2.625 2.5977 4.3516l-5.7617 47.871c-0.28125 1.5234-1.3945 2.6562-2.6211 2.6562h-54.062c-1.2031 0-2.2969-1.0859-2.6094-2.6016l-4.3906-21.043c-1.1094-5.3125-4.3789-10.02-8.9766-12.906-4.625-2.9062-10.246-3.7617-15.527-2.3867-7.4844 1.9531-13.141 8.2578-14.406 16.062l-3.2656 20.113c-0.25 1.5742-1.3828 2.7578-2.6406 2.7578h-54.062c-1.1641 0-2.2305-1.0156-2.5742-2.4375l-7.4844-47.824c-0.26172-1.7539 0.14062-4.6133 2.5391-4.6133h34.219c4.418 0 8-3.582 8-8s-3.582-8-8-8h-32.82c4.7227-17.062 11.879-31.793 21.242-43.484zm-24.234 135.55c-0.74609-3.8164-4.0938-6.4648-7.8438-6.4648-0.5 0-1.0117 0.046874-1.5195 0.14453h-0.050781c-1.5898 0-8.2227-6.6016-9.7578-21.605-0.69141-6.7656-0.023437-13.395 1.8359-18.191 1.5078-3.8867 3.1367-4.8984 3.375-4.9219 0.003906 0 0.011719 0 0.015625 0.003906l4.7148 30.113c0.019531 0.125 0.039062 0.24609 0.066406 0.37109 1.8242 8.8984 9.5117 15.359 18.277 15.359h54.062c9.1992 0 16.957-6.8398 18.438-16.23l3.2617-20.078c0.69531-4.2812 6.5977-4.1602 7.4531-0.066406l4.3867 21.016c1.8242 8.8984 9.5117 15.359 18.277 15.359h54.062c9.1992 0 16.957-6.8398 18.445-16.266 0.015625-0.097656 0.027344-0.19531 0.039063-0.29297l3.4766-28.883c0.66406 0.58203 1.7344 1.8906 2.7539 4.5156 1.8594 4.7969 2.5273 11.426 1.8359 18.191-1.5391 15-8.168 21.602-9.7578 21.602h-0.050781c-4.3359-0.83203-8.5195 2-9.3633 6.3281-10.707 54.957-42.859 86.48-88.215 86.48-45.359 0-77.512-31.523-88.219-86.484zm88.219 102.48c12.574 0 24.457-2.0938 35.398-6.1562v32.184c-8.3633 11.246-21.098 17.656-35.297 17.656h-0.050781c-14.199-0.015625-26.922-6.4336-35.273-17.676v-32.098c10.895 4.0195 22.715 6.0898 35.223 6.0898z"/>
<path d="m193.35 416.75v30.055c0 23.938 19.477 43.414 43.418 43.414h13.531c23.938 0 43.414-19.477 43.414-43.414v-30.055c0-9.0156-7.332-16.348-16.344-16.348h-67.672c-9.0117 0-16.348 7.332-16.348 16.348zm56.949 57.469h-13.531c-15.117 0-27.418-12.297-27.418-27.414v-2.6094h68.363v2.6094c0 15.113-12.297 27.414-27.414 27.414zm27.414-57.469v11.445h-68.363v-11.445c0-0.19141 0.15625-0.34766 0.34766-0.34766h67.672c0.19141 0 0.34375 0.15625 0.34375 0.34766z"/>
</svg>
